<svg width="24" height="24" viewBox="0 0 24 24" fill="none" xmlns="http://www.w3.org/2000/svg">
<path d="M8.28143 0H20.5228C21.4797 0 22.3492 0.390641 22.9793 1.02071C23.6094 1.65077 24 2.52026 24 3.47718V15.6264C24 16.5833 23.6094 17.4528 22.9793 18.0829C22.3492 18.713 21.4797 19.1036 20.5228 19.1036H19.1957V20.5228C19.1957 21.4797 18.8043 22.3492 18.175 22.9793C17.545 23.6094 16.6755 24 15.7186 24H3.47718C2.52026 24 1.65077 23.6094 1.02071 22.9793C0.390641 22.3492 0 21.4797 0 20.5228V8.37358C0 7.41666 0.390641 6.54717 1.02071 5.91711C1.65077 5.28704 2.52026 4.8964 3.47718 4.8964H4.80425V3.47718C4.80425 2.52026 5.19568 1.65077 5.82496 1.02071C6.45503 0.390641 7.32452 0 8.28143 0ZM18.0152 19.1036H8.28143C7.32452 19.1036 6.45503 18.713 5.82496 18.0829C5.19489 17.4528 4.80425 16.5833 4.80425 15.6264V6.07699H3.47718C2.84554 6.07699 2.27218 6.33531 1.85554 6.75194C1.43891 7.16857 1.18059 7.74272 1.18059 8.37358V20.5228C1.18059 21.1545 1.43891 21.7278 1.85554 22.1445C2.27218 22.5611 2.84632 22.8194 3.47718 22.8194H15.7186C16.3494 22.8194 16.9236 22.5611 17.3402 22.1445C17.7568 21.7278 18.0152 21.1537 18.0152 20.5228V19.1036ZM20.522 1.18059H8.28064C7.64979 1.18059 7.07564 1.43891 6.65901 1.85554C6.24238 2.27218 5.98405 2.84632 5.98405 3.47718V5.4863V15.6256C5.98405 16.2565 6.24238 16.8306 6.65901 17.2473C7.07564 17.6639 7.64979 17.9222 8.28064 17.9222H18.6051H20.522C21.1537 17.9222 21.727 17.6639 22.1437 17.2473C22.5603 16.8306 22.8186 16.2565 22.8186 15.6256V3.47639C22.8186 2.84475 22.5603 2.27139 22.1437 1.85476C21.727 1.43813 21.1529 1.1798 20.522 1.1798V1.18059Z" fill="#F5F5F5"/>
</svg>
