<svg width="54" height="54" viewBox="0 0 54 54" fill="none" xmlns="http://www.w3.org/2000/svg">
<rect width="54" height="54" rx="12" fill="#58DAFE"/>
<path d="M32.5781 27C31.9941 27 31.4231 27.1732 30.9375 27.4977C30.4518 27.8222 30.0733 28.2834 29.8498 28.823C29.6263 29.3626 29.5678 29.9564 29.6817 30.5293C29.7957 31.1021 30.0769 31.6283 30.49 32.0413C30.903 32.4543 31.4291 32.7356 32.002 32.8495C32.5748 32.9635 33.1686 32.905 33.7082 32.6815C34.2479 32.4579 34.7091 32.0794 35.0336 31.5938C35.3581 31.1082 35.5313 30.5372 35.5313 29.9531C35.5313 29.1699 35.2201 28.4188 34.6663 27.865C34.1125 27.3111 33.3613 27 32.5781 27Z" fill="#F7FBFE"/>
<path d="M22.552 32.6813C24.0588 32.0572 24.7744 30.3297 24.1503 28.8229C23.5261 27.3161 21.7986 26.6005 20.2918 27.2247C18.785 27.8488 18.0694 29.5763 18.6936 31.0831C19.3177 32.5899 21.0452 33.3055 22.552 32.6813Z" fill="#F7FBFE"/>
<path d="M46.6875 26.8171C46.6875 24.2585 44.6253 22.1774 42.0938 22.1774C41.0268 22.1773 39.9934 22.5505 39.1727 23.2323C36.3016 21.2824 32.5462 20.0889 28.5373 19.8469L30.342 13.3664L35.7897 14.4492C35.9456 16.6214 37.7584 18.3449 39.9446 18.3449C42.2415 18.3449 44.1101 16.4582 44.1101 14.1441C44.1101 11.83 42.1758 9.9375 39.879 9.9375C38.2769 9.9375 36.9004 10.8554 36.1999 12.2975L28.817 10.83L26.2659 19.8141L25.8861 19.8247C21.7328 20.006 17.8191 21.2135 14.8307 23.2315C14.0102 22.5472 12.9747 22.1739 11.9063 22.1774C9.37235 22.1774 7.31255 24.2585 7.31255 26.8171C7.30893 27.6314 7.52022 28.4323 7.92508 29.1389C8.32994 29.8455 8.91405 30.4328 9.61844 30.8415C9.56939 31.2042 9.545 31.5698 9.54544 31.9358C9.55446 35.1957 11.3903 38.2522 14.7134 40.5491C18.0061 42.8132 22.3661 44.0625 27 44.0625C31.634 44.0625 36.0038 42.8132 39.2908 40.5442C42.6155 38.2473 44.4464 35.19 44.4464 31.926C44.4457 31.5612 44.4227 31.1969 44.3775 30.835C45.0824 30.428 45.6672 29.8422 46.0728 29.1366C46.4784 28.4311 46.6905 27.6309 46.6875 26.8171ZM39.961 12.1523C40.3504 12.1523 40.731 12.2678 41.0548 12.4841C41.3785 12.7005 41.6309 13.0079 41.7799 13.3677C41.9289 13.7274 41.9679 14.1233 41.8919 14.5052C41.8159 14.8871 41.6284 15.2379 41.3531 15.5132C41.0778 15.7885 40.727 15.9761 40.3451 16.052C39.9632 16.128 39.5673 16.089 39.2076 15.94C38.8478 15.791 38.5404 15.5386 38.324 15.2149C38.1077 14.8911 37.9922 14.5105 37.9922 14.1211C37.9922 13.5989 38.1997 13.0982 38.5689 12.729C38.9381 12.3598 39.4388 12.1523 39.961 12.1523ZM9.50442 26.8171C9.50202 26.1741 9.75475 25.5564 10.2072 25.0995C10.6596 24.6426 11.2748 24.3838 11.9178 24.3799C12.3076 24.3807 12.6913 24.4774 13.035 24.6613C11.7636 25.8434 10.8259 27.1559 10.2402 28.5725C10.008 28.3428 9.82347 28.0695 9.69719 27.7682C9.57092 27.467 9.50541 27.1437 9.50442 26.8171ZM38.0595 38.7305C35.1277 40.7476 31.2017 41.8591 27.0041 41.8591C22.8066 41.8591 18.879 40.7493 15.9496 38.7305C13.2426 36.861 11.7463 34.4435 11.7463 31.9219C11.7478 31.1578 11.8853 30.4 12.1524 29.6841C12.6183 28.3929 13.478 27.1838 14.7077 26.0919C15.0918 25.7525 15.4962 25.4367 15.9184 25.1461L15.9431 25.1289L15.9627 25.1149C18.8929 23.1035 22.814 21.9977 27.005 21.9977C31.1959 21.9977 35.1179 23.106 38.048 25.1149L38.0669 25.1289L38.0948 25.1494C38.5165 25.4389 38.9205 25.7534 39.3047 26.0911C40.5352 27.1838 41.3949 28.3921 41.8608 29.6849C42.0299 30.1541 42.1484 30.64 42.2144 31.1344C42.2473 31.397 42.2637 31.6613 42.2636 31.926C42.2628 34.446 40.7698 36.8634 38.0595 38.7305ZM43.7689 28.5652C43.184 27.1477 42.2464 25.8343 40.9741 24.6506C41.3192 24.4686 41.7036 24.374 42.0938 24.375C42.7367 24.3789 43.3518 24.6377 43.8041 25.0946C44.2564 25.5515 44.509 26.1692 44.5063 26.8121C44.5057 27.1389 44.4403 27.4622 44.3137 27.7635C44.1871 28.0647 44.0019 28.3377 43.7689 28.5668V28.5652Z" fill="#F7FBFE"/>
<path d="M32.5148 35.7134C32.4943 35.7339 30.4181 37.8519 27.0064 37.8683C23.5611 37.8519 21.5694 35.7987 21.4849 35.7134C21.4213 35.6503 21.3353 35.6149 21.2458 35.6149C21.1562 35.6149 21.0702 35.6503 21.0066 35.7134L19.8828 36.8183C19.8509 36.85 19.8256 36.8876 19.8084 36.9291C19.7911 36.9705 19.7822 37.015 19.7822 37.0599C19.7822 37.1048 19.7911 37.1493 19.8084 37.1907C19.8256 37.2322 19.8509 37.2698 19.8828 37.3015C20.1617 37.5804 22.7293 40.1094 27.0015 40.1275C31.2622 40.1094 33.8412 37.5804 34.1201 37.3015C34.152 37.2698 34.1774 37.2321 34.1946 37.1905C34.2119 37.149 34.2208 37.1045 34.2208 37.0595C34.2208 37.0145 34.2119 36.97 34.1946 36.9284C34.1774 36.8869 34.152 36.8492 34.1201 36.8175L32.9955 35.7125C32.9321 35.6498 32.8464 35.6146 32.7572 35.6146C32.668 35.6146 32.5823 35.6498 32.5189 35.7125L32.5148 35.7134Z" fill="#F7FBFE"/>
</svg>
