<svg width="54" height="54" viewBox="0 0 54 54" fill="none" xmlns="http://www.w3.org/2000/svg">
<rect width="54" height="54" rx="12" fill="#58DAFE"/>
<path d="M20.4501 40C19.3654 40 19.5601 39.5862 19.1707 38.5655L16 28.1931L35.6915 16L38 16.6069L36.0809 21.7931L20.4501 40Z" fill="#C8DAEA"/>
<path d="M20 39.9998C20.8571 39.9998 21.2286 39.6416 21.7143 39.2323C22.4571 38.5928 32 30.2788 32 30.2788L26.1429 28.9998L20.7143 32.0695L20 39.7439V39.9998Z" fill="#A9C9DD"/>
<path d="M21.0874 31.8056L34.4373 41.5944C35.9543 42.4169 37.0576 42.0057 37.4438 40.196L42.8775 14.7506C43.4291 12.5296 42.0224 11.5425 40.5606 12.2006L8.67525 24.4297C6.49623 25.3071 6.52382 26.5136 8.28909 27.0346L16.4811 29.5846L35.4302 17.7119C36.3129 17.1635 37.1404 17.4652 36.4784 18.0684L21.0874 31.8056Z" fill="url(#paint0_linear_7_732)"/>
<defs>
<linearGradient id="paint0_linear_7_732" x1="29.0838" y1="26.1448" x2="35.9208" y2="37.149" gradientUnits="userSpaceOnUse">
<stop stop-color="#EFF7FC"/>
<stop offset="1" stop-color="white"/>
</linearGradient>
</defs>
</svg>
